<?xml version="1.0" encoding="utf-8"?>
<!-- Generator: Adobe Illustrator 18.0.0, SVG Export Plug-In . SVG Version: 6.00 Build 0)  -->
<!DOCTYPE svg PUBLIC "-//W3C//DTD SVG 1.1//EN" "http://www.w3.org/Graphics/SVG/1.1/DTD/svg11.dtd">
<svg version="1.1" id="Layer_1" xmlns="http://www.w3.org/2000/svg" xmlns:xlink="http://www.w3.org/1999/xlink" x="0px" y="0px"
	 viewBox="0 0 1000 1000" enable-background="new 0 0 1000 1000" xml:space="preserve">
<g>
	<path fill="#4BAA62" d="M384.6,108.1c82.8,69.2,68.8,222.6,10.7,302.7c-58.1,81.9-136.8,64-215.9-1.8
		C141.6,374.9,105,303.9,74.7,250.9c-29.8-54.5-53.3-91-52.6-91.8c-0.6,1,71.2-39.2,152-60.3C255.1,76,345.1,72.3,384.6,108.1z"/>
	<path fill="#BFE0BF" d="M296.3,244.4c-3.3-9,5.1-17.9,14.3-15c24.9,7.9,67.1,25.4,109.5,61.2c57.7,48.8,126.2,164.2,124.3,331.4
		c-0.3,24.2-20,43.7-44.2,43.7c-0.2,0-0.4,0-0.5,0c-24.4-0.3-43.9-20.8-43.6-45.2c1.1-106.4-30.2-209.3-93-262.4
		c-1.9-1.6-3.8-3.2-5.8-4.7c-19-15-33.4-35-41.9-57.7L296.3,244.4z"/>
	<path fill="#4BAA62" d="M615.4,108.1c-82.8,69.2-68.8,222.6-10.7,302.7c58.1,81.9,136.8,64,215.9-1.8
		c37.8-34.2,74.4-105.2,104.7-158.2c29.8-54.5,53.3-91,52.6-91.8c0.6,1-71.2-39.2-152-60.3C744.9,76,654.9,72.3,615.4,108.1z"/>
	<path fill="#BFE0BF" d="M701.9,245.5c4-9.1-4.7-18.7-14.1-15.6c-25.1,8.2-66.4,25.6-107.8,60.6c-57.7,48.8-126.2,164.2-124.3,331.4
		c0.3,24.2,20,43.7,44.2,43.7c0.2,0,0.4,0,0.5,0c24.4-0.3,43.9-20.8,43.6-45.2c-1.1-106.4,30.2-209.3,93-262.4
		c0.1-0.1,0.2-0.1,0.2-0.2c15.9-13.4,28.7-30.1,37.1-49.2L701.9,245.5z"/>
	<path fill="#996666" d="M47.4,614.4c75.5,0,75.5,30.9,150.9,30.9c75.5,0,75.5-30.9,150.9-30.9c75.5,0,75.5,30.9,150.9,30.9
		c75.5,0,75.5-30.9,150.9-30.9c75.5,0,75.5,30.9,150.9,30.9s75.5-30.9,150.9-30.9v170.1H47.4V614.4L47.4,614.4z"/>
	<g>
		<path fill="#231F20" d="M166.7,189.2c-5.9-10.7-19.3-14.5-30-8.6c-10.7,5.9-14.5,19.3-8.6,30c0.4,0.8,5.3,9.4,12.5,22.1
			c4.1,7.1,11.5,11.1,19.2,11.1c3.7,0,7.5-0.9,11-2.9c10.6-6.1,14.2-19.6,8.1-30.2C171.9,198.4,167.2,189.9,166.7,189.2z"/>
		<path fill="#231F20" d="M235.6,303.8c-6.8-10.1-20.5-12.8-30.7-6c-10.1,6.8-12.8,20.5-6,30.7c13.3,19.8,19.7,26.6,23.3,30.1
			c4.3,4,9.7,6,15.2,6c5.9,0,11.7-2.3,16.1-6.9c8.4-8.9,8-22.8-0.9-31.2C251.5,325.3,246.9,320.5,235.6,303.8z"/>
		<path fill="#231F20" d="M792.1,305.4c-9.8-7.2-23.6-5.2-30.9,4.6c-5.3,7.2-10,12.7-13.8,16.4c-8.9,8.4-9.3,22.3-0.9,31.2
			c4.3,4.6,10.2,6.9,16.1,6.9c5.4,0,10.9-2,15.2-6c5.8-5.5,12.1-12.8,19.1-22.2C804,326.5,801.9,312.6,792.1,305.4z"/>
		<path fill="#231F20" d="M817.1,218c-6,10.6-2.2,24.1,8.4,30.1c3.4,1.9,7.1,2.8,10.8,2.8c7.7,0,15.2-4.1,19.3-11.3l0.4-0.6
			c5.6-9.9,14.7-26.2,16-28.4c5.9-10.7,2-24.1-8.7-30c-10.7-5.9-24.1-2-30,8.7c-1.2,2.2-10.3,18.4-15.8,28.2L817.1,218z"/>
		<path fill="#231F20" d="M994.6,144.6c-2.4-2.7-116.1-54.9-162.9-67.2c-79.3-22.3-181.4-30.2-230.7,14
			c-42.9,36.1-66.3,94.3-65.8,164.1c0.1,14.9,1.4,29.9,3.6,44.7c-13.9,15.8-27,33.9-38.8,54c-11.8-20-24.9-38.2-38.8-54
			c2.3-14.8,3.5-29.8,3.6-44.7c0.5-69.8-22.8-128-65.8-164.1c-49.3-44.2-151.4-36.3-230.7-14C121.5,89.7,7.8,141.8,5.4,144.6
			c-4.2,4.8-5.5,9.7-5.4,14.2c0,3.6,0.8,7.1,2.4,10.3c1,2.3,35.1,59.7,52.8,92.3c0.1,0.1,0.1,0.3,0.2,0.4c4.5,7.8,9.1,16,13.8,24.5
			c28.3,50.4,60.4,107.6,95.3,139.1c0.2,0.2,0.4,0.4,0.7,0.6c49.2,41,95.3,61.6,137.2,61.6c5.4,0,10.7-0.3,16-1
			c30-3.9,56.8-18.9,80-44.4c21.3,44.1,33.9,100.1,35.3,160.9c0,2.2-0.1,4.4-0.1,6.6c-0.2-0.1-0.4-0.2-0.6-0.3
			c-19.6-8-41.8-17.1-83.8-17.1c-42.1,0-64.3,9.1-83.8,17.1c-18.1,7.4-33.7,13.8-67.1,13.8c-33.4,0-49-6.4-67.1-13.8
			c-19.6-8-41.8-17.1-83.8-17.1c-12.2,0-22.1,9.9-22.1,22.1v170.1c0,12.2,9.9,22.1,22.1,22.1h905.5c12.2,0,22.1-9.9,22.1-22.1V614.4
			c0-12.2-9.9-22.1-22.1-22.1c-42.1,0-64.3,9.1-83.8,17.1c-18.1,7.4-33.7,13.8-67.1,13.8c-33.4,0-49-6.4-67.1-13.8
			c-19.6-8-41.8-17.1-83.8-17.1s-64.3,9.1-83.8,17.1c-0.3,0.1-0.5,0.2-0.8,0.3c0-2.2-0.1-4.4-0.1-6.7
			c1.5-60.7,14.1-116.8,35.3-160.9c23.1,25.6,49.9,40.5,80,44.4c5.3,0.7,10.6,1,16,1c41.9,0,88-20.7,137.2-61.6
			c0.2-0.2,0.5-0.4,0.7-0.6c34.9-31.5,67-88.7,95.3-139.1c4.7-8.4,9.4-16.7,13.8-24.5c0.1-0.1,0.1-0.3,0.2-0.4
			c17.8-32.6,51.9-90,52.8-92.3c1.6-3.2,2.5-6.8,2.4-10.3C1000.1,154.3,998.7,149.4,994.6,144.6z M622.8,341.1
			C558.4,395.5,520.7,500,522,620.6c0,0.5,0,1-0.1,1.6c-6.4,0.7-13.5,1.1-21.8,1.1c-8.5,0-15.8-0.4-22.3-1.1c0-0.1,0-0.3,0-0.4
			c-1.8-157.8,61.6-267.9,116.5-314.3c27.6-23.3,54.9-38.3,77.4-47.9l-17.6,40.2c-6.8,15.5-17.5,29.7-31,41.1L622.8,341.1z
			 M312.7,442.8c-33.3,4.4-73.3-12.6-118.9-50.5c-29.4-26.8-59.5-80.3-86-127.6c-4.8-8.5-9.4-16.7-13.9-24.6
			c-16.7-30.5-31.4-55.5-41-71.6c45.1-21.9,87.6-38.1,126.8-48.4c0.1,0,0.3-0.1,0.4-0.1c84.3-23.7,160.5-21.9,189.7,4.5
			c0.2,0.2,0.4,0.4,0.7,0.6c37,30.9,52.1,83.6,50.2,137.7c-39.4-30.1-77.4-46.2-103.4-54.4c-12.3-3.9-25.5-0.5-34.5,8.8
			c-9,9.4-11.7,22.8-7.2,34.9l0,0l19,51.2c9.9,26.5,26.7,49.7,48.8,67.3c1.7,1.4,3.5,2.8,5.2,4.3c9.2,7.7,17.7,16.9,25.6,27.3
			C356,426.5,335.8,439.8,312.7,442.8z M377.2,341.1c-2.1-1.8-4.2-3.5-6.3-5.2c-15.8-12.5-27.9-29.1-34.9-48.1L325,258.1
			c23.2,9.5,51.9,24.9,80.8,49.3c23.7,20,49,52.1,69.9,94.6c-0.2,0.4-0.3,0.7-0.5,1.1c-8.2,19-15.1,38.6-20.9,58.8
			C437,411.3,410.7,369.4,377.2,341.1z M583.9,650.3c18.1-7.4,33.7-13.8,67.1-13.8s49,6.4,67.1,13.8c19.6,8,41.8,17.1,83.8,17.1
			c42.1,0,64.3-9.1,83.8-17.1c13.6-5.6,25.7-10.5,45-12.7v124.8H69.5V637.6c19.3,2.2,31.4,7.1,45,12.7c19.6,8,41.8,17.1,83.8,17.1
			c42.1,0,64.3-9.1,83.8-17.1c18.1-7.4,33.7-13.8,67.1-13.8c33.4,0,49,6.4,67.1,13.8c19.6,8,41.8,17.1,83.8,17.1
			C542.2,667.4,564.4,658.3,583.9,650.3z M906.1,240.1c-4.5,7.9-9.1,16.1-13.9,24.6c-26.5,47.3-56.6,100.9-86,127.6
			c-45.6,37.8-85.5,54.8-118.9,50.5c-23-3-43.2-16.3-61.5-40.7c7.9-10.4,16.4-19.6,25.6-27.3c0.1,0,0.2-0.1,0.2-0.2
			c18.7-15.8,33.6-35.6,43.1-57.2l27.6-63.1c5.3-12.1,3-26.3-5.9-36.1c-8.9-9.8-22.7-13.5-35.3-9.4c-25.6,8.3-62.9,24.3-101.6,53.9
			c-1.8-54,13.2-106.8,50.2-137.7c0.2-0.2,0.4-0.4,0.7-0.6c15.5-14,44.2-21.1,80.5-21.1c31.9,0,69.7,5.5,109.2,16.6
			c0.1,0,0.3,0.1,0.4,0.1c39.2,10.2,81.7,26.5,126.8,48.4C937.5,184.6,922.7,209.6,906.1,240.1z"/>
	</g>
</g>
</svg>
